<svg width="1920" height="960" viewBox="0 0 1920 960" fill="none" xmlns="http://www.w3.org/2000/svg">
<path d="M-120 739.434C-11.352 779.405 476.555 1034.12 984.126 773.342C1618.59 447.371 1494.54 -666.479 2846.71 -388.398" stroke="white" stroke-width="0.69891"/>
<path d="M309.385 1575.18C418.033 1615.15 905.939 1869.87 1413.51 1609.09C2047.98 1283.12 1923.93 169.27 3276.09 447.351" stroke="#C6C8C9" stroke-width="0.69891"/>
<path d="M-106.149 766.393C2.49908 806.365 490.406 1061.08 997.977 800.301C1632.44 474.331 1508.39 -639.52 2860.56 -361.439" stroke="white" stroke-width="0.69891"/>
<path d="M-92.298 793.352C16.3497 833.324 504.256 1088.04 1011.83 827.261C1646.29 501.29 1522.25 -612.56 2874.41 -334.48" stroke="white" stroke-width="0.69891"/>
<path d="M-78.4464 820.313C30.2012 860.284 518.108 1115 1025.68 854.221C1660.14 528.25 1536.1 -585.6 2888.26 -307.519" stroke="white" stroke-width="0.69891"/>
<path d="M-64.5949 847.273C44.0528 887.245 531.959 1141.96 1039.53 881.181C1674 555.211 1549.95 -558.64 2902.11 -280.559" stroke="white" stroke-width="0.69891"/>
<path d="M-50.7443 874.232C57.9034 914.204 545.81 1168.92 1053.38 908.141C1687.85 582.17 1563.8 -531.68 2915.96 -253.6" stroke="white" stroke-width="0.69891"/>
<path d="M-36.8932 901.192C71.7545 941.164 559.661 1195.88 1067.23 935.1C1701.7 609.129 1577.65 -504.721 2929.81 -226.64" stroke="white" stroke-width="0.69891"/>
<path d="M-23.0421 928.15C85.6056 968.122 573.512 1222.84 1081.08 962.059C1715.55 636.088 1591.5 -477.762 2943.67 -199.682" stroke="white" stroke-width="0.69891"/>
<path d="M-9.19108 955.109C99.4566 995.081 587.363 1249.79 1094.94 989.018C1729.4 663.047 1605.35 -450.803 2957.52 -172.722" stroke="white" stroke-width="0.69891"/>
<path d="M4.65999 982.07C113.308 1022.04 601.214 1276.75 1108.79 1015.98C1743.25 690.008 1619.2 -423.843 2971.37 -145.762" stroke="white" stroke-width="0.69891"/>
<path d="M18.5111 1009.03C127.159 1049 615.065 1303.72 1122.64 1042.94C1757.1 716.968 1633.05 -396.882 2985.22 -118.802" stroke="white" stroke-width="0.69891"/>
<path d="M32.3621 1035.99C141.01 1075.96 628.916 1330.67 1136.49 1069.9C1770.95 743.926 1646.91 -369.924 2999.07 -91.8433" stroke="white" stroke-width="0.69891"/>
<path d="M46.2137 1062.95C154.861 1102.92 642.768 1357.63 1150.34 1096.86C1784.8 770.887 1660.76 -342.964 3012.92 -64.883" stroke="white" stroke-width="0.69891"/>
<path d="M60.0648 1089.91C168.712 1129.88 656.619 1384.59 1164.19 1123.82C1798.66 797.846 1674.61 -316.004 3026.77 -37.9236" stroke="white" stroke-width="0.69891"/>
<path d="M73.9158 1116.87C182.564 1156.84 670.47 1411.55 1178.04 1150.78C1812.51 824.806 1688.46 -289.044 3040.62 -10.9633" stroke="white" stroke-width="0.69891"/>
<path d="M87.767 1143.83C196.415 1183.8 684.321 1438.51 1191.89 1177.74C1826.36 851.766 1702.31 -262.084 3054.47 15.9962" stroke="white" stroke-width="0.69891"/>
<path d="M101.618 1170.79C210.266 1210.76 698.172 1465.47 1205.74 1204.7C1840.21 878.725 1716.16 -235.125 3068.33 42.9555" stroke="white" stroke-width="0.69891"/>
<path d="M115.47 1197.75C224.117 1237.72 712.024 1492.43 1219.6 1231.66C1854.06 905.686 1730.01 -208.165 3082.18 69.9158" stroke="white" stroke-width="0.69891"/>
<path d="M129.321 1224.71C237.968 1264.68 725.875 1519.39 1233.45 1258.62C1867.91 932.645 1743.86 -181.205 3096.03 96.8752" stroke="#C6C8C9" stroke-width="0.69891"/>
<path d="M143.172 1251.67C251.819 1291.64 739.726 1546.35 1247.3 1285.57C1881.76 959.604 1757.71 -154.246 3109.88 123.835" stroke="#C6C8C9" stroke-width="0.69891"/>
<path d="M157.023 1278.63C265.671 1318.6 753.577 1573.31 1261.15 1312.54C1895.61 986.565 1771.57 -127.286 3123.73 150.795" stroke="#C6C8C9" stroke-width="0.69891"/>
<path d="M170.874 1305.59C279.522 1345.56 767.429 1600.27 1275 1339.5C1909.47 1013.52 1785.42 -100.325 3137.58 177.755" stroke="#C6C8C9" stroke-width="0.69891"/>
<path d="M184.725 1332.55C293.373 1372.52 781.279 1627.23 1288.85 1366.45C1923.32 1040.48 1799.27 -73.3668 3151.43 204.714" stroke="#C6C8C9" stroke-width="0.69891"/>
<path d="M198.576 1359.51C307.224 1399.48 795.13 1654.19 1302.7 1393.41C1937.17 1067.44 1813.12 -46.4065 3165.28 231.674" stroke="#C6C8C9" stroke-width="0.69891"/>
<path d="M212.428 1386.47C321.075 1426.44 808.982 1681.15 1316.55 1420.37C1951.02 1094.4 1826.97 -19.4471 3179.14 258.633" stroke="#C6C8C9" stroke-width="0.69891"/>
<path d="M226.279 1413.42C334.926 1453.4 822.833 1708.11 1330.4 1447.33C1964.87 1121.36 1840.82 7.51221 3192.99 285.593" stroke="#C6C8C9" stroke-width="0.69891"/>
<path d="M240.129 1440.38C348.777 1480.36 836.684 1735.07 1344.26 1474.29C1978.72 1148.32 1854.67 34.4717 3206.84 312.552" stroke="#C6C8C9" stroke-width="0.69891"/>
<path d="M253.98 1467.34C362.628 1507.32 850.535 1762.03 1358.11 1501.25C1992.57 1175.28 1868.52 61.431 3220.69 339.512" stroke="#C6C8C9" stroke-width="0.69891"/>
<path d="M267.832 1494.3C376.48 1534.28 864.386 1788.99 1371.96 1528.21C2006.42 1202.24 1882.38 88.3914 3234.54 366.472" stroke="#C6C8C9" stroke-width="0.69891"/>
<path d="M281.683 1521.26C390.331 1561.24 878.237 1815.95 1385.81 1555.17C2020.27 1229.2 1896.23 115.352 3248.39 393.432" stroke="#C6C8C9" stroke-width="0.69891"/>
<path d="M295.534 1548.22C404.182 1588.19 892.088 1842.91 1399.66 1582.13C2034.13 1256.16 1910.08 142.31 3262.24 420.391" stroke="#C6C8C9" stroke-width="0.69891"/>
</svg>
